<svg width="955" height="600" xmlns="http://www.w3.org/2000/svg" xmlns:xlink="http://www.w3.org/1999/xlink"><g transform="translate(50, 40)"><line x1="128.71985123316531" y1="394.1099192881102" x2="242.53095375845132" y2="186.48044034576165"/><line x1="387.66420032497973" y1="447.2730794457269" x2="341.40602946875987" y2="49.02772569629974"/><line x1="387.66420032497973" y1="447.2730794457269" x2="476.6647221930668" y2="269.6017973053812"/><line x1="644.454974880045" y1="48.221192211260096" x2="482.1189641366438" y2="167.90053974171812"/><line x1="644.454974880045" y1="48.221192211260096" x2="539.8278606676037" y2="428.86403277461454"/><line x1="644.454974880045" y1="48.221192211260096" x2="476.6647221930668" y2="269.6017973053812"/><line x1="644.454974880045" y1="48.221192211260096" x2="460.8422334567361" y2="-79.81038887609333"/><line x1="678.200788916559" y1="-39.709247917387984" x2="644.454974880045" y2="48.221192211260096"/><line x1="678.200788916559" y1="-39.709247917387984" x2="760.1686492439663" y2="-61.95875240952637"/><line x1="678.200788916559" y1="-39.709247917387984" x2="476.6647221930668" y2="269.6017973053812"/><line x1="678.200788916559" y1="-39.709247917387984" x2="242.53095375845132" y2="186.48044034576165"/><line x1="678.200788916559" y1="-39.709247917387984" x2="797.0625038314912" y2="-46.50802274452397"/><line x1="678.200788916559" y1="-39.709247917387984" x2="556.7788448578928" y2="68.47431375193166"/><line x1="379.9302521741766" y1="59.77703082268384" x2="202.3674692158733" y2="10.872987369268552"/><line x1="379.9302521741766" y1="59.77703082268384" x2="608.5834937040335" y2="176.29101612446814"/><line x1="379.9302521741766" y1="59.77703082268384" x2="149.68647443758144" y2="88.08271924343"/><line x1="379.9302521741766" y1="59.77703082268384" x2="340.12379528522047" y2="439.21716820378623"/><line x1="485.7950096024681" y1="89.41548431634479" x2="556.7788448578928" y2="68.47431375193166"/><line x1="485.7950096024681" y1="89.41548431634479" x2="293.43223704511087" y2="325.283987818422"/><line x1="485.7950096024681" y1="89.41548431634479" x2="257.0155907833114" y2="243.29608931686158"/><line x1="485.7950096024681" y1="89.41548431634479" x2="253.30082942929545" y2="57.62987798361852"/><line x1="485.7950096024681" y1="89.41548431634479" x2="379.9302521741766" y2="59.77703082268384"/><line x1="485.7950096024681" y1="89.41548431634479" x2="340.12379528522047" y2="439.21716820378623"/><line x1="485.7950096024681" y1="89.41548431634479" x2="714.0566737293968" y2="24.91038608289116"/><line x1="485.7950096024681" y1="89.41548431634479" x2="678.200788916559" y2="-39.709247917387984"/><line x1="416.5249904916975" y1="510.1204304791889" x2="638.2930628432712" y2="411.82242680407114"/><line x1="416.5249904916975" y1="510.1204304791889" x2="537.5238719017979" y2="542.7399906782643"/><line x1="416.5249904916975" y1="510.1204304791889" x2="202.3674692158733" y2="10.872987369268552"/><line x1="416.5249904916975" y1="510.1204304791889" x2="293.43223704511087" y2="325.283987818422"/><line x1="416.5249904916975" y1="510.1204304791889" x2="153.21294615164658" y2="484.27631134520027"/><line x1="416.5249904916975" y1="510.1204304791889" x2="379.9302521741766" y2="59.77703082268384"/><line x1="416.5249904916975" y1="510.1204304791889" x2="795.6608925502346" y2="400.6217179232731"/><line x1="416.5249904916975" y1="510.1204304791889" x2="97.50706356814695" y2="454.0254732528152"/><line x1="174.27394771336816" y1="550.3994618270998" x2="128.71985123316531" y2="394.1099192881102"/><line x1="174.27394771336816" y1="550.3994618270998" x2="206.7525892292654" y2="626.379452130985"/><line x1="174.27394771336816" y1="550.3994618270998" x2="293.43223704511087" y2="325.283987818422"/><line x1="619.9047305066064" y1="285.0879643484353" x2="674.8898320434898" y2="251.33825809493723"/><line x1="619.9047305066064" y1="285.0879643484353" x2="91.91942866568495" y2="97.2689419966793"/><line x1="619.9047305066064" y1="285.0879643484353" x2="763.7675951774752" y2="345.3730978102115"/><line x1="619.9047305066064" y1="285.0879643484353" x2="724.1738326377305" y2="169.88228884750376"/><line x1="619.9047305066064" y1="285.0879643484353" x2="342.6517943689546" y2="228.99129556179275"/><line x1="619.9047305066064" y1="285.0879643484353" x2="730.5116077544163" y2="436.4363208177614"/><line x1="619.9047305066064" y1="285.0879643484353" x2="696.2390141886244" y2="382.16557489014343"/><line x1="619.9047305066064" y1="285.0879643484353" x2="730.3597179801241" y2="233.29958346951724"/><line x1="461.4387925908516" y1="229.9371149442626" x2="379.9302521741766" y2="59.77703082268384"/><line x1="461.4387925908516" y1="229.9371149442626" x2="564.2588559381546" y2="277.8684987017377"/><line x1="461.4387925908516" y1="229.9371149442626" x2="786.2849388587664" y2="221.07114599491405"/><line x1="461.4387925908516" y1="229.9371149442626" x2="242.07038436157083" y2="136.96984769256264"/><line x1="461.4387925908516" y1="229.9371149442626" x2="296.22531799893636" y2="-28.29232238157253"/><line x1="257.0155907833114" y1="243.29608931686158" x2="126.01753873436631" y2="185.6886751348402"/><line x1="257.0155907833114" y1="243.29608931686158" x2="355.9193068565179" y2="335.0739685289285"/><line x1="113.65011590411238" y1="-7.586092974475398" x2="437.1025430474556" y2="-9.328185306408612"/><line x1="113.65011590411238" y1="-7.586092974475398" x2="341.40602946875987" y2="49.02772569629974"/><line x1="113.65011590411238" y1="-7.586092974475398" x2="253.30082942929545" y2="57.62987798361852"/><line x1="153.21294615164658" y1="484.27631134520027" x2="253.30082942929545" y2="57.62987798361852"/><line x1="153.21294615164658" y1="484.27631134520027" x2="330.90985803171566" y2="496.20522830438057"/><line x1="153.21294615164658" y1="484.27631134520027" x2="16.658805846937213" y2="320.94073880054054"/><line x1="342.76477140048416" y1="111.14585884090876" x2="341.40602946875987" y2="49.02772569629974"/><line x1="342.76477140048416" y1="111.14585884090876" x2="351.8957237455792" y2="-84.38460373005594"/><line x1="342.76477140048416" y1="111.14585884090876" x2="379.9302521741766" y2="59.77703082268384"/><line x1="342.76477140048416" y1="111.14585884090876" x2="763.7675951774752" y2="345.3730978102115"/><line x1="342.76477140048416" y1="111.14585884090876" x2="355.9193068565179" y2="335.0739685289285"/><line x1="273.2594978997706" y1="290.74648931166587" x2="556.7788448578928" y2="68.47431375193166"/><line x1="273.2594978997706" y1="290.74648931166587" x2="97.50706356814695" y2="454.0254732528152"/><line x1="273.2594978997706" y1="290.74648931166587" x2="167.22658166134408" y2="632.4115126546078"/><line x1="273.2594978997706" y1="290.74648931166587" x2="461.4387925908516" y2="229.9371149442626"/><line x1="273.2594978997706" y1="290.74648931166587" x2="674.8898320434898" y2="251.33825809493723"/><line x1="273.2594978997706" y1="290.74648931166587" x2="113.65011590411238" y2="-7.586092974475398"/><line x1="247.79348336687363" y1="321.5835060716371" x2="505.3547938527777" y2="307.0293747788485"/><line x1="247.79348336687363" y1="321.5835060716371" x2="485.7950096024681" y2="89.41548431634479"/><line x1="795.6608925502346" y1="400.6217179232731" x2="558.9126957868316" y2="376.0588195550094"/><line x1="795.6608925502346" y1="400.6217179232731" x2="674.8898320434898" y2="251.33825809493723"/><line x1="213.95841663467823" y1="235.6210023599728" x2="403.89038442812483" y2="327.82053729739073"/><line x1="213.95841663467823" y1="235.6210023599728" x2="273.2594978997706" y2="290.74648931166587"/><line x1="213.95841663467823" y1="235.6210023599728" x2="330.90985803171566" y2="496.20522830438057"/><line x1="213.95841663467823" y1="235.6210023599728" x2="424.5292448028298" y2="161.55493904730469"/><line x1="213.95841663467823" y1="235.6210023599728" x2="485.7950096024681" y2="89.41548431634479"/><line x1="213.95841663467823" y1="235.6210023599728" x2="113.65011590411238" y2="-7.586092974475398"/><line x1="213.95841663467823" y1="235.6210023599728" x2="293.43223704511087" y2="325.283987818422"/><line x1="401.3628267111246" y1="584.7797877524297" x2="330.90985803171566" y2="496.20522830438057"/><line x1="401.3628267111246" y1="584.7797877524297" x2="529.8159634831147" y2="182.77694781556795"/><line x1="401.3628267111246" y1="584.7797877524297" x2="213.77510714812198" y2="506.6565828103007"/><line x1="401.3628267111246" y1="584.7797877524297" x2="273.2594978997706" y2="290.74648931166587"/><line x1="401.3628267111246" y1="584.7797877524297" x2="539.8278606676037" y2="428.86403277461454"/><line x1="672.9927736511767" y1="497.9189655430522" x2="461.4387925908516" y2="229.9371149442626"/><line x1="672.9927736511767" y1="497.9189655430522" x2="795.6608925502346" y2="400.6217179232731"/><line x1="672.9927736511767" y1="497.9189655430522" x2="554.7644062374889" y2="594.6043043331945"/><line x1="838.9081404009437" y1="86.90707282386388" x2="795.6608925502346" y2="400.6217179232731"/><line x1="838.9081404009437" y1="86.90707282386388" x2="644.454974880045" y2="48.221192211260096"/><line x1="91.91942866568495" y1="97.2689419966793" x2="355.9193068565179" y2="335.0739685289285"/><line x1="91.91942866568495" y1="97.2689419966793" x2="-22.331819430604153" y2="195.1621384672116"/><line x1="91.91942866568495" y1="97.2689419966793" x2="202.3674692158733" y2="10.872987369268552"/><line x1="340.12379528522047" y1="439.21716820378623" x2="476.6647221930668" y2="269.6017973053812"/><line x1="340.12379528522047" y1="439.21716820378623" x2="47.63441678653102" y2="453.0084411342005"/><line x1="340.12379528522047" y1="439.21716820378623" x2="482.1189641366438" y2="167.90053974171812"/><line x1="340.12379528522047" y1="439.21716820378623" x2="274.45792755504687" y2="465.2374102597293"/><line x1="340.12379528522047" y1="439.21716820378623" x2="93.73036191010358" y2="318.01851063130346"/><line x1="340.12379528522047" y1="439.21716820378623" x2="408.7354488649374" y2="413.2846237557299"/><line x1="340.12379528522047" y1="439.21716820378623" x2="556.7788448578928" y2="68.47431375193166"/><line x1="340.12379528522047" y1="439.21716820378623" x2="551.0366829243203" y2="505.09824001297955"/><line x1="505.3547938527777" y1="307.0293747788485" x2="437.1025430474556" y2="-9.328185306408612"/><line x1="558.9126957868316" y1="376.0588195550094" x2="257.0155907833114" y2="243.29608931686158"/><line x1="558.9126957868316" y1="376.0588195550094" x2="416.5249904916975" y2="510.1204304791889"/><line x1="558.9126957868316" y1="376.0588195550094" x2="529.8159634831147" y2="182.77694781556795"/><line x1="558.9126957868316" y1="376.0588195550094" x2="153.21294615164658" y2="484.27631134520027"/><line x1="558.9126957868316" y1="376.0588195550094" x2="485.7950096024681" y2="89.41548431634479"/><line x1="558.9126957868316" y1="376.0588195550094" x2="355.9193068565179" y2="335.0739685289285"/><line x1="558.9126957868316" y1="376.0588195550094" x2="672.9927736511767" y2="497.9189655430522"/><line x1="558.9126957868316" y1="376.0588195550094" x2="128.71985123316531" y2="394.1099192881102"/><line x1="177.61318382866455" y1="403.36151493986796" x2="47.63441678653102" y2="453.0084411342005"/><line x1="177.61318382866455" y1="403.36151493986796" x2="247.79348336687363" y2="321.5835060716371"/><line x1="177.61318382866455" y1="403.36151493986796" x2="424.5292448028298" y2="161.55493904730469"/><line x1="177.61318382866455" y1="403.36151493986796" x2="366.57652064692076" y2="285.83091804886675"/><line x1="206.7525892292654" y1="626.379452130985" x2="128.71985123316531" y2="394.1099192881102"/><line x1="206.7525892292654" y1="626.379452130985" x2="403.89038442812483" y2="327.82053729739073"/><line x1="472.54193847487875" y1="40.89006096902164" x2="508.42920483723134" y2="-45.21547034058579"/><line x1="472.54193847487875" y1="40.89006096902164" x2="594.2891545182108" y2="98.24280278378637"/><line x1="472.54193847487875" y1="40.89006096902164" x2="149.68647443758144" y2="88.08271924343"/><line x1="472.54193847487875" y1="40.89006096902164" x2="644.454974880045" y2="48.221192211260096"/><line x1="472.54193847487875" y1="40.89006096902164" x2="730.3597179801241" y2="233.29958346951724"/><line x1="472.54193847487875" y1="40.89006096902164" x2="619.9047305066064" y2="285.0879643484353"/><line x1="472.54193847487875" y1="40.89006096902164" x2="408.7354488649374" y2="413.2846237557299"/><line x1="763.7675951774752" y1="345.3730978102115" x2="638.2930628432712" y2="411.82242680407114"/><line x1="763.7675951774752" y1="345.3730978102115" x2="730.5116077544163" y2="436.4363208177614"/><line x1="763.7675951774752" y1="345.3730978102115" x2="366.57652064692076" y2="285.83091804886675"/><line x1="293.43223704511087" y1="325.283987818422" x2="128.71985123316531" y2="394.1099192881102"/><line x1="293.43223704511087" y1="325.283987818422" x2="16.658805846937213" y2="320.94073880054054"/><line x1="293.43223704511087" y1="325.283987818422" x2="472.54193847487875" y2="40.89006096902164"/><line x1="293.43223704511087" y1="325.283987818422" x2="554.7644062374889" y2="594.6043043331945"/><line x1="293.43223704511087" y1="325.283987818422" x2="202.3674692158733" y2="10.872987369268552"/><line x1="293.43223704511087" y1="325.283987818422" x2="153.21294615164658" y2="484.27631134520027"/><line x1="293.43223704511087" y1="325.283987818422" x2="342.76477140048416" y2="111.14585884090876"/><line x1="293.43223704511087" y1="325.283987818422" x2="733.0072800965344" y2="75.5483728425375"/><line x1="674.8898320434898" y1="251.33825809493723" x2="403.89038442812483" y2="327.82053729739073"/><line x1="674.8898320434898" y1="251.33825809493723" x2="730.3597179801241" y2="233.29958346951724"/><line x1="674.8898320434898" y1="251.33825809493723" x2="760.1686492439663" y2="-61.95875240952637"/><line x1="674.8898320434898" y1="251.33825809493723" x2="554.7644062374889" y2="594.6043043331945"/><line x1="674.8898320434898" y1="251.33825809493723" x2="696.2390141886244" y2="382.16557489014343"/><line x1="674.8898320434898" y1="251.33825809493723" x2="678.200788916559" y2="-39.709247917387984"/><line x1="408.7354488649374" y1="413.2846237557299" x2="247.79348336687363" y2="321.5835060716371"/><line x1="408.7354488649374" y1="413.2846237557299" x2="638.2930628432712" y2="411.82242680407114"/><line x1="408.7354488649374" y1="413.2846237557299" x2="242.53095375845132" y2="186.48044034576165"/><line x1="408.7354488649374" y1="413.2846237557299" x2="181.3967116769689" y2="128.4413646039375"/><line x1="323.63975293463295" y1="159.84799036921697" x2="558.9126957868316" y2="376.0588195550094"/><line x1="323.63975293463295" y1="159.84799036921697" x2="149.68647443758144" y2="88.08271924343"/><line x1="323.63975293463295" y1="159.84799036921697" x2="304.3197399929611" y2="565.4095678721176"/><line x1="323.63975293463295" y1="159.84799036921697" x2="539.8278606676037" y2="428.86403277461454"/><line x1="730.3597179801241" y1="233.29958346951724" x2="539.8278606676037" y2="428.86403277461454"/><line x1="608.5834937040335" y1="176.29101612446814" x2="482.1189641366438" y2="167.90053974171812"/><line x1="608.5834937040335" y1="176.29101612446814" x2="253.30082942929545" y2="57.62987798361852"/><line x1="608.5834937040335" y1="176.29101612446814" x2="786.2849388587664" y2="221.07114599491405"/><line x1="608.5834937040335" y1="176.29101612446814" x2="529.8159634831147" y2="182.77694781556795"/><line x1="608.5834937040335" y1="176.29101612446814" x2="293.43223704511087" y2="325.283987818422"/><line x1="714.0566737293968" y1="24.91038608289116" x2="505.3547938527777" y2="307.0293747788485"/><line x1="714.0566737293968" y1="24.91038608289116" x2="678.200788916559" y2="-39.709247917387984"/><line x1="714.0566737293968" y1="24.91038608289116" x2="424.5292448028298" y2="161.55493904730469"/><line x1="714.0566737293968" y1="24.91038608289116" x2="594.2891545182108" y2="98.24280278378637"/><line x1="714.0566737293968" y1="24.91038608289116" x2="556.7788448578928" y2="68.47431375193166"/><line x1="714.0566737293968" y1="24.91038608289116" x2="763.7675951774752" y2="345.3730978102115"/><line x1="485.0758382193531" y1="387.89499001965584" x2="537.5238719017979" y2="542.7399906782643"/><line x1="485.0758382193531" y1="387.89499001965584" x2="342.76477140048416" y2="111.14585884090876"/><line x1="485.0758382193531" y1="387.89499001965584" x2="429.5724901147754" y2="363.8370145106862"/><line x1="485.0758382193531" y1="387.89499001965584" x2="177.61318382866455" y2="403.36151493986796"/><line x1="485.0758382193531" y1="387.89499001965584" x2="472.54193847487875" y2="40.89006096902164"/><line x1="485.0758382193531" y1="387.89499001965584" x2="340.12379528522047" y2="439.21716820378623"/><line x1="551.0366829243203" y1="505.09824001297955" x2="174.27394771336816" y2="550.3994618270998"/><line x1="551.0366829243203" y1="505.09824001297955" x2="763.7675951774752" y2="345.3730978102115"/><line x1="551.0366829243203" y1="505.09824001297955" x2="461.4387925908516" y2="229.9371149442626"/><line x1="551.0366829243203" y1="505.09824001297955" x2="615.7010809663368" y2="593.5616371690876"/><line x1="696.2390141886244" y1="382.16557489014343" x2="485.7950096024681" y2="89.41548431634479"/><line x1="696.2390141886244" y1="382.16557489014343" x2="678.200788916559" y2="-39.709247917387984"/><line x1="696.2390141886244" y1="382.16557489014343" x2="340.12379528522047" y2="439.21716820378623"/><line x1="696.2390141886244" y1="382.16557489014343" x2="788.5999682179861" y2="493.48737848284316"/><line x1="696.2390141886244" y1="382.16557489014343" x2="730.5116077544163" y2="436.4363208177614"/><line x1="696.2390141886244" y1="382.16557489014343" x2="342.6517943689546" y2="228.99129556179275"/><line x1="696.2390141886244" y1="382.16557489014343" x2="834.0503765409035" y2="489.3320779828986"/><line x1="696.2390141886244" y1="382.16557489014343" x2="638.2930628432712" y2="411.82242680407114"/><line x1="167.22658166134408" y1="632.4115126546078" x2="615.7010809663368" y2="593.5616371690876"/><line x1="167.22658166134408" y1="632.4115126546078" x2="177.61318382866455" y2="403.36151493986796"/><line x1="167.22658166134408" y1="632.4115126546078" x2="138.93098554609563" y2="230.33082882215692"/><line x1="167.22658166134408" y1="632.4115126546078" x2="416.5249904916975" y2="510.1204304791889"/><line x1="167.22658166134408" y1="632.4115126546078" x2="90.31328015056802" y2="569.7528262021217"/><line x1="167.22658166134408" y1="632.4115126546078" x2="174.27394771336816" y2="550.3994618270998"/><line x1="760.1686492439663" y1="-61.95875240952637" x2="594.2891545182108" y2="98.24280278378637"/><line x1="760.1686492439663" y1="-61.95875240952637" x2="797.0625038314912" y2="-46.50802274452397"/><line x1="202.3674692158733" y1="10.872987369268552" x2="386.276816243752" y2="-166.42787691625932"/><line x1="202.3674692158733" y1="10.872987369268552" x2="505.3547938527777" y2="307.0293747788485"/><line x1="202.3674692158733" y1="10.872987369268552" x2="253.30082942929545" y2="57.62987798361852"/><line x1="202.3674692158733" y1="10.872987369268552" x2="113.65011590411238" y2="-7.586092974475398"/><line x1="202.3674692158733" y1="10.872987369268552" x2="342.6517943689546" y2="228.99129556179275"/><line x1="202.3674692158733" y1="10.872987369268552" x2="437.1025430474556" y2="-9.328185306408612"/><line x1="202.3674692158733" y1="10.872987369268552" x2="556.7788448578928" y2="68.47431375193166"/><line x1="437.1025430474556" y1="-9.328185306408612" x2="296.22531799893636" y2="-28.29232238157253"/><line x1="437.1025430474556" y1="-9.328185306408612" x2="730.5116077544163" y2="436.4363208177614"/><line x1="437.1025430474556" y1="-9.328185306408612" x2="760.1686492439663" y2="-61.95875240952637"/><line x1="797.0625038314912" y1="-46.50802274452397" x2="508.42920483723134" y2="-45.21547034058579"/><line x1="797.0625038314912" y1="-46.50802274452397" x2="553.5730528190845" y2="214.9530007194966"/><line x1="797.0625038314912" y1="-46.50802274452397" x2="714.0566737293968" y2="24.91038608289116"/><line x1="797.0625038314912" y1="-46.50802274452397" x2="485.7950096024681" y2="89.41548431634479"/><line x1="797.0625038314912" y1="-46.50802274452397" x2="838.9081404009437" y2="86.90707282386388"/><line x1="424.5292448028298" y1="161.55493904730469" x2="247.79348336687363" y2="321.5835060716371"/><line x1="424.5292448028298" y1="161.55493904730469" x2="323.63975293463295" y2="159.84799036921697"/><line x1="424.5292448028298" y1="161.55493904730469" x2="556.7788448578928" y2="68.47431375193166"/><line x1="424.5292448028298" y1="161.55493904730469" x2="714.0566737293968" y2="24.91038608289116"/><line x1="424.5292448028298" y1="161.55493904730469" x2="553.5730528190845" y2="214.9530007194966"/><line x1="424.5292448028298" y1="161.55493904730469" x2="485.7950096024681" y2="89.41548431634479"/><line x1="424.5292448028298" y1="161.55493904730469" x2="213.95841663467823" y2="235.6210023599728"/><line x1="733.0072800965344" y1="75.5483728425375" x2="678.200788916559" y2="-39.709247917387984"/><line x1="733.0072800965344" y1="75.5483728425375" x2="730.5116077544163" y2="436.4363208177614"/><line x1="733.0072800965344" y1="75.5483728425375" x2="714.0566737293968" y2="24.91038608289116"/><line x1="733.0072800965344" y1="75.5483728425375" x2="341.40602946875987" y2="49.02772569629974"/><line x1="733.0072800965344" y1="75.5483728425375" x2="437.1025430474556" y2="-9.328185306408612"/><line x1="733.0072800965344" y1="75.5483728425375" x2="562.3609669304639" y2="-88.17680510825011"/><line x1="733.0072800965344" y1="75.5483728425375" x2="730.3597179801241" y2="233.29958346951724"/><line x1="733.0072800965344" y1="75.5483728425375" x2="797.0625038314912" y2="-46.50802274452397"/><line x1="460.8422334567361" y1="-79.81038887609333" x2="273.2594978997706" y2="290.74648931166587"/><line x1="460.8422334567361" y1="-79.81038887609333" x2="678.200788916559" y2="-39.709247917387984"/><line x1="274.45792755504687" y1="465.2374102597293" x2="497.6528205472064" y2="483.6585188637165"/><line x1="274.45792755504687" y1="465.2374102597293" x2="181.3967116769689" y2="128.4413646039375"/><line x1="274.45792755504687" y1="465.2374102597293" x2="416.5249904916975" y2="510.1204304791889"/><line x1="213.77510714812198" y1="506.6565828103007" x2="366.57652064692076" y2="285.83091804886675"/><line x1="213.77510714812198" y1="506.6565828103007" x2="206.7525892292654" y2="626.379452130985"/><line x1="529.8159634831147" y1="182.77694781556795" x2="460.8422334567361" y2="-79.81038887609333"/><line x1="529.8159634831147" y1="182.77694781556795" x2="366.57652064692076" y2="285.83091804886675"/><line x1="529.8159634831147" y1="182.77694781556795" x2="556.7788448578928" y2="68.47431375193166"/><line x1="529.8159634831147" y1="182.77694781556795" x2="342.6517943689546" y2="228.99129556179275"/><line x1="815.5026424032582" y1="163.74883013851772" x2="838.9081404009437" y2="86.90707282386388"/><line x1="815.5026424032582" y1="163.74883013851772" x2="760.1686492439663" y2="-61.95875240952637"/><line x1="815.5026424032582" y1="163.74883013851772" x2="763.7675951774752" y2="345.3730978102115"/><line x1="815.5026424032582" y1="163.74883013851772" x2="564.2588559381546" y2="277.8684987017377"/><line x1="815.5026424032582" y1="163.74883013851772" x2="562.3609669304639" y2="-88.17680510825011"/><line x1="539.8278606676037" y1="428.86403277461454" x2="696.2390141886244" y2="382.16557489014343"/><line x1="539.8278606676037" y1="428.86403277461454" x2="537.5238719017979" y2="542.7399906782643"/><line x1="539.8278606676037" y1="428.86403277461454" x2="815.5026424032582" y2="163.74883013851772"/><line x1="539.8278606676037" y1="428.86403277461454" x2="153.21294615164658" y2="484.27631134520027"/><line x1="539.8278606676037" y1="428.86403277461454" x2="387.66420032497973" y2="447.2730794457269"/><line x1="615.7010809663368" y1="593.5616371690876" x2="408.7354488649374" y2="413.2846237557299"/><line x1="615.7010809663368" y1="593.5616371690876" x2="672.9927736511767" y2="497.9189655430522"/><line x1="615.7010809663368" y1="593.5616371690876" x2="608.5834937040335" y2="176.29101612446814"/><line x1="615.7010809663368" y1="593.5616371690876" x2="505.3547938527777" y2="307.0293747788485"/><line x1="93.73036191010358" y1="318.01851063130346" x2="153.21294615164658" y2="484.27631134520027"/><line x1="93.73036191010358" y1="318.01851063130346" x2="126.01753873436631" y2="185.6886751348402"/><line x1="93.73036191010358" y1="318.01851063130346" x2="242.07038436157083" y2="136.96984769256264"/><line x1="556.7788448578928" y1="68.47431375193166" x2="253.30082942929545" y2="57.62987798361852"/><line x1="556.7788448578928" y1="68.47431375193166" x2="638.2930628432712" y2="411.82242680407114"/><line x1="556.7788448578928" y1="68.47431375193166" x2="786.2849388587664" y2="221.07114599491405"/><line x1="95.92325000110303" y1="364.9474725192927" x2="153.21294615164658" y2="484.27631134520027"/><line x1="95.92325000110303" y1="364.9474725192927" x2="253.30082942929545" y2="57.62987798361852"/><line x1="95.92325000110303" y1="364.9474725192927" x2="97.50706356814695" y2="454.0254732528152"/><line x1="95.92325000110303" y1="364.9474725192927" x2="539.8278606676037" y2="428.86403277461454"/><line x1="95.92325000110303" y1="364.9474725192927" x2="181.3967116769689" y2="128.4413646039375"/><line x1="95.92325000110303" y1="364.9474725192927" x2="342.6517943689546" y2="228.99129556179275"/><line x1="95.92325000110303" y1="364.9474725192927" x2="429.5724901147754" y2="363.8370145106862"/><line x1="341.40602946875987" y1="49.02772569629974" x2="476.6647221930668" y2="269.6017973053812"/><line x1="508.42920483723134" y1="-45.21547034058579" x2="472.54193847487875" y2="40.89006096902164"/><line x1="508.42920483723134" y1="-45.21547034058579" x2="559.0307031329083" y2="-19.47696173641668"/><line x1="508.42920483723134" y1="-45.21547034058579" x2="366.57652064692076" y2="285.83091804886675"/><line x1="508.42920483723134" y1="-45.21547034058579" x2="330.90985803171566" y2="496.20522830438057"/><line x1="508.42920483723134" y1="-45.21547034058579" x2="724.1738326377305" y2="169.88228884750376"/><line x1="508.42920483723134" y1="-45.21547034058579" x2="553.5730528190845" y2="214.9530007194966"/><line x1="508.42920483723134" y1="-45.21547034058579" x2="296.22531799893636" y2="-28.29232238157253"/><line x1="508.42920483723134" y1="-45.21547034058579" x2="424.5292448028298" y2="161.55493904730469"/><line x1="497.6528205472064" y1="483.6585188637165" x2="553.5730528190845" y2="214.9530007194966"/><line x1="497.6528205472064" y1="483.6585188637165" x2="619.9047305066064" y2="285.0879643484353"/><line x1="497.6528205472064" y1="483.6585188637165" x2="273.2594978997706" y2="290.74648931166587"/><line x1="126.01753873436631" y1="185.6886751348402" x2="90.31328015056802" y2="569.7528262021217"/><line x1="126.01753873436631" y1="185.6886751348402" x2="95.92325000110303" y2="364.9474725192927"/><line x1="126.01753873436631" y1="185.6886751348402" x2="342.76477140048416" y2="111.14585884090876"/><line x1="126.01753873436631" y1="185.6886751348402" x2="619.9047305066064" y2="285.0879643484353"/><line x1="126.01753873436631" y1="185.6886751348402" x2="181.3967116769689" y2="128.4413646039375"/><line x1="537.5238719017979" y1="542.7399906782643" x2="564.2588559381546" y2="277.8684987017377"/><line x1="149.68647443758144" y1="88.08271924343" x2="177.61318382866455" y2="403.36151493986796"/><line x1="149.68647443758144" y1="88.08271924343" x2="113.65011590411238" y2="-7.586092974475398"/><line x1="149.68647443758144" y1="88.08271924343" x2="247.79348336687363" y2="321.5835060716371"/><line x1="553.5730528190845" y1="214.9530007194966" x2="564.2588559381546" y2="277.8684987017377"/><line x1="553.5730528190845" y1="214.9530007194966" x2="556.7788448578928" y2="68.47431375193166"/><line x1="553.5730528190845" y1="214.9530007194966" x2="485.0758382193531" y2="387.89499001965584"/><line x1="553.5730528190845" y1="214.9530007194966" x2="253.30082942929545" y2="57.62987798361852"/><line x1="553.5730528190845" y1="214.9530007194966" x2="126.01753873436631" y2="185.6886751348402"/><line x1="553.5730528190845" y1="214.9530007194966" x2="416.5249904916975" y2="510.1204304791889"/><line x1="553.5730528190845" y1="214.9530007194966" x2="355.9193068565179" y2="335.0739685289285"/><line x1="330.90985803171566" y1="496.20522830438057" x2="342.76477140048416" y2="111.14585884090876"/><line x1="330.90985803171566" y1="496.20522830438057" x2="497.6528205472064" y2="483.6585188637165"/><line x1="330.90985803171566" y1="496.20522830438057" x2="167.22658166134408" y2="632.4115126546078"/><line x1="330.90985803171566" y1="496.20522830438057" x2="408.7354488649374" y2="413.2846237557299"/><line x1="330.90985803171566" y1="496.20522830438057" x2="672.9927736511767" y2="497.9189655430522"/><line x1="16.658805846937213" y1="320.94073880054054" x2="95.92325000110303" y2="364.9474725192927"/><line x1="16.658805846937213" y1="320.94073880054054" x2="594.2891545182108" y2="98.24280278378637"/><line x1="16.658805846937213" y1="320.94073880054054" x2="97.50706356814695" y2="454.0254732528152"/><line x1="16.658805846937213" y1="320.94073880054054" x2="257.0155907833114" y2="243.29608931686158"/><line x1="16.658805846937213" y1="320.94073880054054" x2="90.31328015056802" y2="569.7528262021217"/><line x1="16.658805846937213" y1="320.94073880054054" x2="202.3674692158733" y2="10.872987369268552"/><line x1="16.658805846937213" y1="320.94073880054054" x2="47.63441678653102" y2="453.0084411342005"/><line x1="564.2588559381546" y1="277.8684987017377" x2="403.89038442812483" y2="327.82053729739073"/><line x1="564.2588559381546" y1="277.8684987017377" x2="485.0758382193531" y2="387.89499001965584"/><line x1="564.2588559381546" y1="277.8684987017377" x2="387.66420032497973" y2="447.2730794457269"/><line x1="564.2588559381546" y1="277.8684987017377" x2="296.22531799893636" y2="-28.29232238157253"/><line x1="564.2588559381546" y1="277.8684987017377" x2="559.0307031329083" y2="-19.47696173641668"/><line x1="564.2588559381546" y1="277.8684987017377" x2="553.5730528190845" y2="214.9530007194966"/><line x1="564.2588559381546" y1="277.8684987017377" x2="424.5292448028298" y2="161.55493904730469"/><line x1="564.2588559381546" y1="277.8684987017377" x2="505.3547938527777" y2="307.0293747788485"/><line x1="242.53095375845132" y1="186.48044034576165" x2="330.90985803171566" y2="496.20522830438057"/><line x1="242.53095375845132" y1="186.48044034576165" x2="113.65011590411238" y2="-7.586092974475398"/><line x1="242.53095375845132" y1="186.48044034576165" x2="202.3674692158733" y2="10.872987369268552"/><line x1="482.1189641366438" y1="167.90053974171812" x2="345.4223476215166" y2="388.34483651521793"/><line x1="482.1189641366438" y1="167.90053974171812" x2="672.9927736511767" y2="497.9189655430522"/><line x1="482.1189641366438" y1="167.90053974171812" x2="323.63975293463295" y2="159.84799036921697"/><line x1="482.1189641366438" y1="167.90053974171812" x2="529.8159634831147" y2="182.77694781556795"/><line x1="482.1189641366438" y1="167.90053974171812" x2="485.7950096024681" y2="89.41548431634479"/><line x1="482.1189641366438" y1="167.90053974171812" x2="838.9081404009437" y2="86.90707282386388"/><line x1="482.1189641366438" y1="167.90053974171812" x2="296.22531799893636" y2="-28.29232238157253"/><line x1="482.1189641366438" y1="167.90053974171812" x2="416.5249904916975" y2="510.1204304791889"/><line x1="304.3197399929611" y1="565.4095678721176" x2="90.31328015056802" y2="569.7528262021217"/><line x1="304.3197399929611" y1="565.4095678721176" x2="167.22658166134408" y2="632.4115126546078"/><line x1="304.3197399929611" y1="565.4095678721176" x2="95.92325000110303" y2="364.9474725192927"/><line x1="304.3197399929611" y1="565.4095678721176" x2="340.12379528522047" y2="439.21716820378623"/><line x1="304.3197399929611" y1="565.4095678721176" x2="564.2588559381546" y2="277.8684987017377"/><line x1="304.3197399929611" y1="565.4095678721176" x2="345.4223476215166" y2="388.34483651521793"/><line x1="366.57652064692076" y1="285.83091804886675" x2="213.95841663467823" y2="235.6210023599728"/><line x1="366.57652064692076" y1="285.83091804886675" x2="429.5724901147754" y2="363.8370145106862"/><line x1="366.57652064692076" y1="285.83091804886675" x2="564.2588559381546" y2="277.8684987017377"/><line x1="366.57652064692076" y1="285.83091804886675" x2="330.90985803171566" y2="496.20522830438057"/><line x1="366.57652064692076" y1="285.83091804886675" x2="296.22531799893636" y2="-28.29232238157253"/><line x1="366.57652064692076" y1="285.83091804886675" x2="345.4223476215166" y2="388.34483651521793"/><line x1="786.2849388587664" y1="221.07114599491405" x2="608.5834937040335" y2="176.29101612446814"/><line x1="786.2849388587664" y1="221.07114599491405" x2="594.2891545182108" y2="98.24280278378637"/><line x1="786.2849388587664" y1="221.07114599491405" x2="763.7675951774752" y2="345.3730978102115"/><line x1="786.2849388587664" y1="221.07114599491405" x2="730.3597179801241" y2="233.29958346951724"/><line x1="786.2849388587664" y1="221.07114599491405" x2="558.9126957868316" y2="376.0588195550094"/><line x1="786.2849388587664" y1="221.07114599491405" x2="672.9927736511767" y2="497.9189655430522"/><line x1="342.6517943689546" y1="228.99129556179275" x2="293.43223704511087" y2="325.283987818422"/><line x1="351.8957237455792" y1="-84.38460373005594" x2="126.01753873436631" y2="185.6886751348402"/><line x1="351.8957237455792" y1="-84.38460373005594" x2="562.3609669304639" y2="-88.17680510825011"/><line x1="351.8957237455792" y1="-84.38460373005594" x2="559.0307031329083" y2="-19.47696173641668"/><line x1="817.1938384400336" y1="288.84243602825103" x2="795.6608925502346" y2="400.6217179232731"/><line x1="817.1938384400336" y1="288.84243602825103" x2="558.9126957868316" y2="376.0588195550094"/><line x1="817.1938384400336" y1="288.84243602825103" x2="733.0072800965344" y2="75.5483728425375"/><line x1="90.31328015056802" y1="569.7528262021217" x2="153.21294615164658" y2="484.27631134520027"/><line x1="90.31328015056802" y1="569.7528262021217" x2="206.7525892292654" y2="626.379452130985"/><line x1="90.31328015056802" y1="569.7528262021217" x2="387.66420032497973" y2="447.2730794457269"/><line x1="90.31328015056802" y1="569.7528262021217" x2="505.3547938527777" y2="307.0293747788485"/><line x1="562.3609669304639" y1="-88.17680510825011" x2="379.9302521741766" y2="59.77703082268384"/><line x1="562.3609669304639" y1="-88.17680510825011" x2="323.63975293463295" y2="159.84799036921697"/><line x1="562.3609669304639" y1="-88.17680510825011" x2="564.2588559381546" y2="277.8684987017377"/><line x1="562.3609669304639" y1="-88.17680510825011" x2="472.54193847487875" y2="40.89006096902164"/><line x1="355.9193068565179" y1="335.0739685289285" x2="696.2390141886244" y2="382.16557489014343"/><line x1="355.9193068565179" y1="335.0739685289285" x2="247.79348336687363" y2="321.5835060716371"/><line x1="355.9193068565179" y1="335.0739685289285" x2="206.7525892292654" y2="626.379452130985"/><line x1="-22.331819430604153" y1="195.1621384672116" x2="91.91942866568495" y2="97.2689419966793"/><line x1="-22.331819430604153" y1="195.1621384672116" x2="128.71985123316531" y2="394.1099192881102"/><line x1="-22.331819430604153" y1="195.1621384672116" x2="16.658805846937213" y2="320.94073880054054"/><line x1="-22.331819430604153" y1="195.1621384672116" x2="213.77510714812198" y2="506.6565828103007"/><line x1="281.1175025393169" y1="8.727313250472644" x2="323.63975293463295" y2="159.84799036921697"/><line x1="281.1175025393169" y1="8.727313250472644" x2="341.40602946875987" y2="49.02772569629974"/><line x1="281.1175025393169" y1="8.727313250472644" x2="403.89038442812483" y2="327.82053729739073"/><line x1="281.1175025393169" y1="8.727313250472644" x2="181.3967116769689" y2="128.4413646039375"/><line x1="281.1175025393169" y1="8.727313250472644" x2="472.54193847487875" y2="40.89006096902164"/><line x1="281.1175025393169" y1="8.727313250472644" x2="138.93098554609563" y2="230.33082882215692"/><line x1="281.1175025393169" y1="8.727313250472644" x2="485.7950096024681" y2="89.41548431634479"/><line x1="281.1175025393169" y1="8.727313250472644" x2="508.42920483723134" y2="-45.21547034058579"/><line x1="788.5999682179861" y1="493.48737848284316" x2="615.7010809663368" y2="593.5616371690876"/><line x1="788.5999682179861" y1="493.48737848284316" x2="724.1738326377305" y2="169.88228884750376"/><line x1="730.5116077544163" y1="436.4363208177614" x2="505.3547938527777" y2="307.0293747788485"/><line x1="730.5116077544163" y1="436.4363208177614" x2="497.6528205472064" y2="483.6585188637165"/><line x1="730.5116077544163" y1="436.4363208177614" x2="304.3197399929611" y2="565.4095678721176"/><line x1="730.5116077544163" y1="436.4363208177614" x2="834.0503765409035" y2="489.3320779828986"/><line x1="386.276816243752" y1="-166.42787691625932" x2="342.76477140048416" y2="111.14585884090876"/><line x1="386.276816243752" y1="-166.42787691625932" x2="508.42920483723134" y2="-45.21547034058579"/><line x1="386.276816243752" y1="-166.42787691625932" x2="562.3609669304639" y2="-88.17680510825011"/><line x1="386.276816243752" y1="-166.42787691625932" x2="460.8422334567361" y2="-79.81038887609333"/><line x1="476.6647221930668" y1="269.6017973053812" x2="553.5730528190845" y2="214.9530007194966"/><line x1="476.6647221930668" y1="269.6017973053812" x2="551.0366829243203" y2="505.09824001297955"/><line x1="476.6647221930668" y1="269.6017973053812" x2="529.8159634831147" y2="182.77694781556795"/><line x1="476.6647221930668" y1="269.6017973053812" x2="485.0758382193531" y2="387.89499001965584"/><line x1="476.6647221930668" y1="269.6017973053812" x2="730.3597179801241" y2="233.29958346951724"/><line x1="476.6647221930668" y1="269.6017973053812" x2="330.90985803171566" y2="496.20522830438057"/><line x1="476.6647221930668" y1="269.6017973053812" x2="416.5249904916975" y2="510.1204304791889"/><line x1="554.7644062374889" y1="594.6043043331945" x2="416.5249904916975" y2="510.1204304791889"/><line x1="554.7644062374889" y1="594.6043043331945" x2="763.7675951774752" y2="345.3730978102115"/><line x1="554.7644062374889" y1="594.6043043331945" x2="401.3628267111246" y2="584.7797877524297"/><line x1="554.7644062374889" y1="594.6043043331945" x2="340.12379528522047" y2="439.21716820378623"/><line x1="554.7644062374889" y1="594.6043043331945" x2="539.8278606676037" y2="428.86403277461454"/><line x1="432.06129309231204" y1="121.4436683351633" x2="539.8278606676037" y2="428.86403277461454"/><line x1="432.06129309231204" y1="121.4436683351633" x2="508.42920483723134" y2="-45.21547034058579"/><line x1="432.06129309231204" y1="121.4436683351633" x2="476.6647221930668" y2="269.6017973053812"/><line x1="432.06129309231204" y1="121.4436683351633" x2="253.30082942929545" y2="57.62987798361852"/><line x1="242.07038436157083" y1="136.96984769256264" x2="128.71985123316531" y2="394.1099192881102"/><line x1="242.07038436157083" y1="136.96984769256264" x2="460.8422334567361" y2="-79.81038887609333"/><line x1="242.07038436157083" y1="136.96984769256264" x2="482.1189641366438" y2="167.90053974171812"/><line x1="242.07038436157083" y1="136.96984769256264" x2="472.54193847487875" y2="40.89006096902164"/><line x1="242.07038436157083" y1="136.96984769256264" x2="476.6647221930668" y2="269.6017973053812"/><line x1="242.07038436157083" y1="136.96984769256264" x2="174.27394771336816" y2="550.3994618270998"/><line x1="138.93098554609563" y1="230.33082882215692" x2="461.4387925908516" y2="229.9371149442626"/><line x1="138.93098554609563" y1="230.33082882215692" x2="126.01753873436631" y2="185.6886751348402"/><line x1="138.93098554609563" y1="230.33082882215692" x2="342.6517943689546" y2="228.99129556179275"/><line x1="138.93098554609563" y1="230.33082882215692" x2="482.1189641366438" y2="167.90053974171812"/><line x1="296.22531799893636" y1="-28.29232238157253" x2="181.3967116769689" y2="128.4413646039375"/><line x1="296.22531799893636" y1="-28.29232238157253" x2="-22.331819430604153" y2="195.1621384672116"/><line x1="296.22531799893636" y1="-28.29232238157253" x2="242.07038436157083" y2="136.96984769256264"/><line x1="429.5724901147754" y1="363.8370145106862" x2="95.92325000110303" y2="364.9474725192927"/><line x1="429.5724901147754" y1="363.8370145106862" x2="213.77510714812198" y2="506.6565828103007"/><line x1="429.5724901147754" y1="363.8370145106862" x2="594.2891545182108" y2="98.24280278378637"/><line x1="429.5724901147754" y1="363.8370145106862" x2="615.7010809663368" y2="593.5616371690876"/><line x1="429.5724901147754" y1="363.8370145106862" x2="696.2390141886244" y2="382.16557489014343"/><line x1="429.5724901147754" y1="363.8370145106862" x2="437.1025430474556" y2="-9.328185306408612"/><line x1="429.5724901147754" y1="363.8370145106862" x2="424.5292448028298" y2="161.55493904730469"/><line x1="429.5724901147754" y1="363.8370145106862" x2="242.53095375845132" y2="186.48044034576165"/><line x1="181.3967116769689" y1="128.4413646039375" x2="476.6647221930668" y2="269.6017973053812"/><line x1="181.3967116769689" y1="128.4413646039375" x2="138.93098554609563" y2="230.33082882215692"/><line x1="181.3967116769689" y1="128.4413646039375" x2="674.8898320434898" y2="251.33825809493723"/><line x1="181.3967116769689" y1="128.4413646039375" x2="253.30082942929545" y2="57.62987798361852"/><line x1="181.3967116769689" y1="128.4413646039375" x2="323.63975293463295" y2="159.84799036921697"/><line x1="181.3967116769689" y1="128.4413646039375" x2="437.1025430474556" y2="-9.328185306408612"/><line x1="181.3967116769689" y1="128.4413646039375" x2="91.91942866568495" y2="97.2689419966793"/><g class="node" transform="translate(128.71985123316531, 394.1099192881102)"><circle r="10"/><text dy="3">28</text></g><g class="node" transform="translate(387.66420032497973, 447.2730794457269)"><circle r="10"/><text dy="3">77</text></g><g class="node" transform="translate(644.454974880045, 48.221192211260096)"><circle r="10"/><text dy="3">75</text></g><g class="node" transform="translate(678.200788916559, -39.709247917387984)"><circle r="10"/><text dy="3">23</text></g><g class="node" transform="translate(379.9302521741766, 59.77703082268384)"><circle r="10"/><text dy="3">30</text></g><g class="node" transform="translate(47.63441678653102, 453.0084411342005)"><circle r="10"/><text dy="3">98</text></g><g class="node" transform="translate(485.7950096024681, 89.41548431634479)"><circle r="10"/><text dy="3">86</text></g><g class="node" transform="translate(559.0307031329083, -19.47696173641668)"><circle r="10"/><text dy="3">74</text></g><g class="node" transform="translate(416.5249904916975, 510.1204304791889)"><circle r="10"/><text dy="3">70</text></g><g class="node" transform="translate(174.27394771336816, 550.3994618270998)"><circle r="10"/><text dy="3">65</text></g><g class="node" transform="translate(619.9047305066064, 285.0879643484353)"><circle r="10"/><text dy="3">78</text></g><g class="node" transform="translate(461.4387925908516, 229.9371149442626)"><circle r="10"/><text dy="3">62</text></g><g class="node" transform="translate(257.0155907833114, 243.29608931686158)"><circle r="10"/><text dy="3">15</text></g><g class="node" transform="translate(113.65011590411238, -7.586092974475398)"><circle r="10"/><text dy="3">5</text></g><g class="node" transform="translate(153.21294615164658, 484.27631134520027)"><circle r="10"/><text dy="3">64</text></g><g class="node" transform="translate(342.76477140048416, 111.14585884090876)"><circle r="10"/><text dy="3">43</text></g><g class="node" transform="translate(273.2594978997706, 290.74648931166587)"><circle r="10"/><text dy="3">27</text></g><g class="node" transform="translate(247.79348336687363, 321.5835060716371)"><circle r="10"/><text dy="3">95</text></g><g class="node" transform="translate(795.6608925502346, 400.6217179232731)"><circle r="10"/><text dy="3">61</text></g><g class="node" transform="translate(213.95841663467823, 235.6210023599728)"><circle r="10"/><text dy="3">3</text></g><g class="node" transform="translate(401.3628267111246, 584.7797877524297)"><circle r="10"/><text dy="3">37</text></g><g class="node" transform="translate(672.9927736511767, 497.9189655430522)"><circle r="10"/><text dy="3">93</text></g><g class="node" transform="translate(838.9081404009437, 86.90707282386388)"><circle r="10"/><text dy="3">73</text></g><g class="node" transform="translate(91.91942866568495, 97.2689419966793)"><circle r="10"/><text dy="3">49</text></g><g class="node" transform="translate(340.12379528522047, 439.21716820378623)"><circle r="10"/><text dy="3">57</text></g><g class="node" transform="translate(505.3547938527777, 307.0293747788485)"><circle r="10"/><text dy="3">48</text></g><g class="node" transform="translate(724.1738326377305, 169.88228884750376)"><circle r="10"/><text dy="3">96</text></g><g class="node" transform="translate(558.9126957868316, 376.0588195550094)"><circle r="10"/><text dy="3">1</text></g><g class="node" transform="translate(177.61318382866455, 403.36151493986796)"><circle r="10"/><text dy="3">66</text></g><g class="node" transform="translate(206.7525892292654, 626.379452130985)"><circle r="10"/><text dy="3">31</text></g><g class="node" transform="translate(472.54193847487875, 40.89006096902164)"><circle r="10"/><text dy="3">69</text></g><g class="node" transform="translate(763.7675951774752, 345.3730978102115)"><circle r="10"/><text dy="3">6</text></g><g class="node" transform="translate(293.43223704511087, 325.283987818422)"><circle r="10"/><text dy="3">53</text></g><g class="node" transform="translate(674.8898320434898, 251.33825809493723)"><circle r="10"/><text dy="3">99</text></g><g class="node" transform="translate(408.7354488649374, 413.2846237557299)"><circle r="10"/><text dy="3">17</text></g><g class="node" transform="translate(323.63975293463295, 159.84799036921697)"><circle r="10"/><text dy="3">54</text></g><g class="node" transform="translate(638.2930628432712, 411.82242680407114)"><circle r="10"/><text dy="3">19</text></g><g class="node" transform="translate(730.3597179801241, 233.29958346951724)"><circle r="10"/><text dy="3">45</text></g><g class="node" transform="translate(608.5834937040335, 176.29101612446814)"><circle r="10"/><text dy="3">63</text></g><g class="node" transform="translate(714.0566737293968, 24.91038608289116)"><circle r="10"/><text dy="3">40</text></g><g class="node" transform="translate(485.0758382193531, 387.89499001965584)"><circle r="10"/><text dy="3">88</text></g><g class="node" transform="translate(551.0366829243203, 505.09824001297955)"><circle r="10"/><text dy="3">18</text></g><g class="node" transform="translate(696.2390141886244, 382.16557489014343)"><circle r="10"/><text dy="3">13</text></g><g class="node" transform="translate(167.22658166134408, 632.4115126546078)"><circle r="10"/><text dy="3">92</text></g><g class="node" transform="translate(760.1686492439663, -61.95875240952637)"><circle r="10"/><text dy="3">94</text></g><g class="node" transform="translate(202.3674692158733, 10.872987369268552)"><circle r="10"/><text dy="3">56</text></g><g class="node" transform="translate(437.1025430474556, -9.328185306408612)"><circle r="10"/><text dy="3">12</text></g><g class="node" transform="translate(797.0625038314912, -46.50802274452397)"><circle r="10"/><text dy="3">24</text></g><g class="node" transform="translate(424.5292448028298, 161.55493904730469)"><circle r="10"/><text dy="3">50</text></g><g class="node" transform="translate(253.30082942929545, 57.62987798361852)"><circle r="10"/><text dy="3">80</text></g><g class="node" transform="translate(733.0072800965344, 75.5483728425375)"><circle r="10"/><text dy="3">52</text></g><g class="node" transform="translate(460.8422334567361, -79.81038887609333)"><circle r="10"/><text dy="3">59</text></g><g class="node" transform="translate(274.45792755504687, 465.2374102597293)"><circle r="10"/><text dy="3">8</text></g><g class="node" transform="translate(213.77510714812198, 506.6565828103007)"><circle r="10"/><text dy="3">76</text></g><g class="node" transform="translate(529.8159634831147, 182.77694781556795)"><circle r="10"/><text dy="3">42</text></g><g class="node" transform="translate(815.5026424032582, 163.74883013851772)"><circle r="10"/><text dy="3">7</text></g><g class="node" transform="translate(539.8278606676037, 428.86403277461454)"><circle r="10"/><text dy="3">87</text></g><g class="node" transform="translate(403.89038442812483, 327.82053729739073)"><circle r="10"/><text dy="3">81</text></g><g class="node" transform="translate(615.7010809663368, 593.5616371690876)"><circle r="10"/><text dy="3">91</text></g><g class="node" transform="translate(93.73036191010358, 318.01851063130346)"><circle r="10"/><text dy="3">26</text></g><g class="node" transform="translate(556.7788448578928, 68.47431375193166)"><circle r="10"/><text dy="3">25</text></g><g class="node" transform="translate(95.92325000110303, 364.9474725192927)"><circle r="10"/><text dy="3">55</text></g><g class="node" transform="translate(341.40602946875987, 49.02772569629974)"><circle r="10"/><text dy="3">100</text></g><g class="node" transform="translate(508.42920483723134, -45.21547034058579)"><circle r="10"/><text dy="3">72</text></g><g class="node" transform="translate(497.6528205472064, 483.6585188637165)"><circle r="10"/><text dy="3">11</text></g><g class="node" transform="translate(126.01753873436631, 185.6886751348402)"><circle r="10"/><text dy="3">4</text></g><g class="node" transform="translate(537.5238719017979, 542.7399906782643)"><circle r="10"/><text dy="3">44</text></g><g class="node" transform="translate(149.68647443758144, 88.08271924343)"><circle r="10"/><text dy="3">83</text></g><g class="node" transform="translate(553.5730528190845, 214.9530007194966)"><circle r="10"/><text dy="3">9</text></g><g class="node" transform="translate(330.90985803171566, 496.20522830438057)"><circle r="10"/><text dy="3">2</text></g><g class="node" transform="translate(16.658805846937213, 320.94073880054054)"><circle r="10"/><text dy="3">22</text></g><g class="node" transform="translate(564.2588559381546, 277.8684987017377)"><circle r="10"/><text dy="3">36</text></g><g class="node" transform="translate(242.53095375845132, 186.48044034576165)"><circle r="10"/><text dy="3">71</text></g><g class="node" transform="translate(482.1189641366438, 167.90053974171812)"><circle r="10"/><text dy="3">21</text></g><g class="node" transform="translate(304.3197399929611, 565.4095678721176)"><circle r="10"/><text dy="3">20</text></g><g class="node" transform="translate(366.57652064692076, 285.83091804886675)"><circle r="10"/><text dy="3">67</text></g><g class="node" transform="translate(786.2849388587664, 221.07114599491405)"><circle r="10"/><text dy="3">47</text></g><g class="node" transform="translate(342.6517943689546, 228.99129556179275)"><circle r="10"/><text dy="3">82</text></g><g class="node" transform="translate(351.8957237455792, -84.38460373005594)"><circle r="10"/><text dy="3">46</text></g><g class="node" transform="translate(817.1938384400336, 288.84243602825103)"><circle r="10"/><text dy="3">41</text></g><g class="node" transform="translate(90.31328015056802, 569.7528262021217)"><circle r="10"/><text dy="3">29</text></g><g class="node" transform="translate(562.3609669304639, -88.17680510825011)"><circle r="10"/><text dy="3">34</text></g><g class="node" transform="translate(355.9193068565179, 335.0739685289285)"><circle r="10"/><text dy="3">16</text></g><g class="node" transform="translate(834.0503765409035, 489.3320779828986)"><circle r="10"/><text dy="3">89</text></g><g class="node" transform="translate(-22.331819430604153, 195.1621384672116)"><circle r="10"/><text dy="3">51</text></g><g class="node" transform="translate(281.1175025393169, 8.727313250472644)"><circle r="10"/><text dy="3">60</text></g><g class="node" transform="translate(788.5999682179861, 493.48737848284316)"><circle r="10"/><text dy="3">39</text></g><g class="node" transform="translate(730.5116077544163, 436.4363208177614)"><circle r="10"/><text dy="3">58</text></g><g class="node" transform="translate(386.276816243752, -166.42787691625932)"><circle r="10"/><text dy="3">85</text></g><g class="node" transform="translate(345.4223476215166, 388.34483651521793)"><circle r="10"/><text dy="3">10</text></g><g class="node" transform="translate(476.6647221930668, 269.6017973053812)"><circle r="10"/><text dy="3">38</text></g><g class="node" transform="translate(594.2891545182108, 98.24280278378637)"><circle r="10"/><text dy="3">33</text></g><g class="node" transform="translate(554.7644062374889, 594.6043043331945)"><circle r="10"/><text dy="3">35</text></g><g class="node" transform="translate(432.06129309231204, 121.4436683351633)"><circle r="10"/><text dy="3">32</text></g><g class="node" transform="translate(242.07038436157083, 136.96984769256264)"><circle r="10"/><text dy="3">68</text></g><g class="node" transform="translate(138.93098554609563, 230.33082882215692)"><circle r="10"/><text dy="3">84</text></g><g class="node" transform="translate(296.22531799893636, -28.29232238157253)"><circle r="10"/><text dy="3">97</text></g><g class="node" transform="translate(429.5724901147754, 363.8370145106862)"><circle r="10"/><text dy="3">90</text></g><g class="node" transform="translate(181.3967116769689, 128.4413646039375)"><circle r="10"/><text dy="3">79</text></g><g class="node" transform="translate(97.50706356814695, 454.0254732528152)"><circle r="10"/><text dy="3">14</text></g></g></svg>